<?xml version="1.0" encoding="utf-8"?>
<!-- Generator: Adobe Illustrator 16.0.0, SVG Export Plug-In . SVG Version: 6.00 Build 0)  -->
<!DOCTYPE svg PUBLIC "-//W3C//DTD SVG 1.1//EN" "http://www.w3.org/Graphics/SVG/1.1/DTD/svg11.dtd">
<svg version="1.1" id="Layer_1" xmlns="http://www.w3.org/2000/svg" xmlns:xlink="http://www.w3.org/1999/xlink" x="0px" y="0px"
	 width="72.031px" height="72.031px" viewBox="0 0 72.031 72.031" enable-background="new 0 0 72.031 72.031" xml:space="preserve">
<path id="_89802448" fill="#FFFFFF" d="M19.008,7.669h34.016c6.245,0,11.339,5.094,11.339,11.339v34.016
	c0,6.245-5.094,11.339-11.339,11.339H19.008c-6.245,0-11.339-5.094-11.339-11.339V19.008C7.669,12.763,12.763,7.669,19.008,7.669z"
	/>
<path id="_90022912" fill="#B6DDC7" stroke="#1296CE" stroke-width="2" d="M24.677,19.008h22.678c3.122,0,5.669,2.547,5.669,5.669
	v22.678c0,3.122-2.547,5.669-5.669,5.669H24.677c-3.122,0-5.669-2.547-5.669-5.669V24.677
	C19.008,21.555,21.555,19.008,24.677,19.008z"/>
<path fill="#E77817" d="M7.669,47.798H2c-0.245,0-0.443-0.198-0.443-0.443S1.755,46.911,2,46.911h5.669
	c0.245,0,0.443,0.198,0.443,0.443S7.914,47.798,7.669,47.798z"/>
<path fill="#E77817" d="M7.669,42.124H2c-0.245,0-0.443-0.198-0.443-0.443S1.755,41.238,2,41.238h5.669
	c0.245,0,0.443,0.198,0.443,0.443S7.914,42.124,7.669,42.124z"/>
<path fill="#E77817" d="M7.669,30.79H2c-0.245,0-0.443-0.198-0.443-0.443S1.755,29.904,2,29.904h5.669
	c0.245,0,0.443,0.198,0.443,0.443S7.914,30.79,7.669,30.79z"/>
<path fill="#E77817" d="M7.669,36.454H2c-0.245,0-0.443-0.198-0.443-0.443S1.755,35.568,2,35.568h5.669
	c0.245,0,0.443,0.198,0.443,0.443S7.914,36.454,7.669,36.454z"/>
<path fill="#E77817" d="M7.669,25.116H2c-0.245,0-0.443-0.198-0.443-0.443S1.755,24.23,2,24.23h5.669
	c0.245,0,0.443,0.198,0.443,0.443S7.914,25.116,7.669,25.116z"/>
<path fill="#E77817" d="M7.669,19.447H2c-0.245,0-0.443-0.198-0.443-0.443S1.755,18.56,2,18.56h5.669
	c0.245,0,0.443,0.198,0.443,0.443S7.914,19.447,7.669,19.447z"/>
<path fill="#E77817" d="M7.669,53.465H2c-0.245,0-0.443-0.198-0.443-0.443S1.755,52.578,2,52.578h5.669
	c0.245,0,0.443,0.198,0.443,0.443S7.914,53.465,7.669,53.465z"/>
<path fill="#E77817" d="M70.031,47.798h-5.67c-0.245,0-0.443-0.198-0.443-0.443s0.198-0.443,0.443-0.443h5.67
	c0.245,0,0.443,0.198,0.443,0.443S70.277,47.798,70.031,47.798z"/>
<path fill="#E77817" d="M70.031,42.124h-5.67c-0.245,0-0.443-0.198-0.443-0.443s0.198-0.443,0.443-0.443h5.67
	c0.245,0,0.443,0.198,0.443,0.443S70.277,42.124,70.031,42.124z"/>
<path fill="#E77817" d="M70.031,30.79h-5.67c-0.245,0-0.443-0.198-0.443-0.443s0.198-0.443,0.443-0.443h5.67
	c0.245,0,0.443,0.198,0.443,0.443S70.277,30.79,70.031,30.79z"/>
<path fill="#E77817" d="M70.031,36.454h-5.67c-0.245,0-0.443-0.198-0.443-0.443s0.198-0.443,0.443-0.443h5.67
	c0.245,0,0.443,0.198,0.443,0.443S70.277,36.454,70.031,36.454z"/>
<path fill="#E77817" d="M70.031,25.116h-5.67c-0.245,0-0.443-0.198-0.443-0.443s0.198-0.443,0.443-0.443h5.67
	c0.245,0,0.443,0.198,0.443,0.443S70.277,25.116,70.031,25.116z"/>
<path fill="#E77817" d="M70.031,19.447h-5.67c-0.245,0-0.443-0.198-0.443-0.443s0.198-0.443,0.443-0.443h5.67
	c0.245,0,0.443,0.198,0.443,0.443S70.277,19.447,70.031,19.447z"/>
<path fill="#E77817" d="M70.031,53.465h-5.67c-0.245,0-0.443-0.198-0.443-0.443s0.198-0.443,0.443-0.443h5.67
	c0.245,0,0.443,0.198,0.443,0.443S70.277,53.465,70.031,53.465z"/>
<path fill="#E77817" d="M24.677,70.475c-0.245,0-0.443-0.198-0.443-0.443v-5.67c0-0.245,0.198-0.443,0.443-0.443
	s0.443,0.198,0.443,0.443v5.67C25.12,70.277,24.922,70.475,24.677,70.475z"/>
<path fill="#E77817" d="M30.351,70.475c-0.245,0-0.443-0.198-0.443-0.443v-5.67c0-0.245,0.198-0.443,0.443-0.443
	s0.443,0.198,0.443,0.443v5.67C30.794,70.277,30.596,70.475,30.351,70.475z"/>
<path fill="#E77817" d="M41.685,70.475c-0.245,0-0.443-0.198-0.443-0.443v-5.67c0-0.245,0.198-0.443,0.443-0.443
	s0.443,0.198,0.443,0.443v5.67C42.128,70.277,41.93,70.475,41.685,70.475z"/>
<path fill="#E77817" d="M36.021,70.475c-0.245,0-0.443-0.198-0.443-0.443v-5.67c0-0.245,0.198-0.443,0.443-0.443
	s0.443,0.198,0.443,0.443v5.67C36.464,70.277,36.266,70.475,36.021,70.475z"/>
<path fill="#E77817" d="M47.359,70.475c-0.245,0-0.443-0.198-0.443-0.443v-5.67c0-0.245,0.198-0.443,0.443-0.443
	s0.443,0.198,0.443,0.443v5.67C47.802,70.277,47.604,70.475,47.359,70.475z"/>
<path fill="#E77817" d="M53.029,70.475c-0.245,0-0.443-0.198-0.443-0.443v-5.67c0-0.245,0.198-0.443,0.443-0.443
	s0.443,0.198,0.443,0.443v5.67C53.472,70.277,53.274,70.475,53.029,70.475z"/>
<path fill="#E77817" d="M19.01,70.475c-0.245,0-0.443-0.198-0.443-0.443v-5.67c0-0.245,0.198-0.443,0.443-0.443
	s0.443,0.198,0.443,0.443v5.67C19.453,70.277,19.255,70.475,19.01,70.475z"/>
<path fill="#E77817" d="M24.675,8.113c-0.245,0-0.443-0.198-0.443-0.443V2c0-0.245,0.198-0.443,0.443-0.443S25.118,1.755,25.118,2
	v5.669C25.118,7.914,24.92,8.113,24.675,8.113z"/>
<path fill="#E77817" d="M30.349,8.113c-0.245,0-0.443-0.198-0.443-0.443V2c0-0.245,0.198-0.443,0.443-0.443S30.792,1.755,30.792,2
	v5.669C30.792,7.914,30.594,8.113,30.349,8.113z"/>
<path fill="#E77817" d="M41.683,8.113c-0.245,0-0.443-0.198-0.443-0.443V2c0-0.245,0.198-0.443,0.443-0.443S42.126,1.755,42.126,2
	v5.669C42.126,7.914,41.928,8.113,41.683,8.113z"/>
<path fill="#E77817" d="M36.018,8.113c-0.245,0-0.443-0.198-0.443-0.443V2c0-0.245,0.198-0.443,0.443-0.443S36.461,1.755,36.461,2
	v5.669C36.461,7.914,36.263,8.113,36.018,8.113z"/>
<path fill="#E77817" d="M47.357,8.113c-0.245,0-0.443-0.198-0.443-0.443V2c0-0.245,0.198-0.443,0.443-0.443S47.8,1.755,47.8,2v5.669
	C47.8,7.914,47.602,8.113,47.357,8.113z"/>
<path fill="#E77817" d="M53.026,8.113c-0.245,0-0.443-0.198-0.443-0.443V2c0-0.245,0.198-0.443,0.443-0.443S53.469,1.755,53.469,2
	v5.669C53.469,7.914,53.271,8.113,53.026,8.113z"/>
<g>
	<path fill="#FF9218" d="M7.669,45.911H2c-0.796,0-1.443,0.647-1.443,1.443S1.204,48.798,2,48.798h5.669
		c0.796,0,1.443-0.647,1.443-1.443S8.465,45.911,7.669,45.911z"/>
	<path fill="#FF9218" d="M7.669,40.238H2c-0.796,0-1.443,0.647-1.443,1.443S1.204,43.124,2,43.124h5.669
		c0.796,0,1.443-0.647,1.443-1.443S8.465,40.238,7.669,40.238z"/>
	<path fill="#FF9218" d="M7.669,28.904H2c-0.796,0-1.443,0.647-1.443,1.443S1.204,31.79,2,31.79h5.669
		c0.796,0,1.443-0.647,1.443-1.443S8.465,28.904,7.669,28.904z"/>
	<path fill="#FF9218" d="M7.669,34.568H2c-0.796,0-1.443,0.647-1.443,1.443S1.204,37.454,2,37.454h5.669
		c0.796,0,1.443-0.647,1.443-1.443S8.465,34.568,7.669,34.568z"/>
	<path fill="#FF9218" d="M7.669,23.23H2c-0.796,0-1.443,0.647-1.443,1.443S1.204,26.116,2,26.116h5.669
		c0.796,0,1.443-0.647,1.443-1.443S8.465,23.23,7.669,23.23z"/>
	<path fill="#FF9218" d="M7.669,17.56H2c-0.796,0-1.443,0.647-1.443,1.443S1.204,20.447,2,20.447h5.669
		c0.796,0,1.443-0.647,1.443-1.443S8.465,17.56,7.669,17.56z"/>
	<path fill="#FF9218" d="M7.669,51.578H2c-0.796,0-1.443,0.647-1.443,1.443S1.204,54.465,2,54.465h5.669
		c0.796,0,1.443-0.647,1.443-1.443S8.465,51.578,7.669,51.578z"/>
	<path fill="#FF9218" d="M70.031,45.911h-5.67c-0.796,0-1.443,0.647-1.443,1.443s0.647,1.443,1.443,1.443h5.67
		c0.796,0,1.443-0.647,1.443-1.443S70.827,45.911,70.031,45.911z"/>
	<path fill="#FF9218" d="M70.031,40.238h-5.67c-0.796,0-1.443,0.647-1.443,1.443s0.647,1.443,1.443,1.443h5.67
		c0.796,0,1.443-0.647,1.443-1.443S70.827,40.238,70.031,40.238z"/>
	<path fill="#FF9218" d="M70.031,28.904h-5.67c-0.796,0-1.443,0.647-1.443,1.443s0.647,1.443,1.443,1.443h5.67
		c0.796,0,1.443-0.647,1.443-1.443S70.827,28.904,70.031,28.904z"/>
	<path fill="#FF9218" d="M70.031,34.568h-5.67c-0.796,0-1.443,0.647-1.443,1.443s0.647,1.443,1.443,1.443h5.67
		c0.796,0,1.443-0.647,1.443-1.443S70.827,34.568,70.031,34.568z"/>
	<path fill="#FF9218" d="M70.031,23.23h-5.67c-0.796,0-1.443,0.647-1.443,1.443s0.647,1.443,1.443,1.443h5.67
		c0.796,0,1.443-0.647,1.443-1.443S70.827,23.23,70.031,23.23z"/>
	<path fill="#FF9218" d="M64.362,20.447h5.67c0.796,0,1.443-0.647,1.443-1.443s-0.647-1.443-1.443-1.443h-5.67
		c-0.796,0-1.443,0.647-1.443,1.443S63.566,20.447,64.362,20.447z"/>
	<path fill="#FF9218" d="M70.031,51.578h-5.67c-0.796,0-1.443,0.647-1.443,1.443s0.647,1.443,1.443,1.443h5.67
		c0.796,0,1.443-0.647,1.443-1.443S70.827,51.578,70.031,51.578z"/>
	<path fill="#FF9218" d="M24.677,62.918c-0.796,0-1.443,0.647-1.443,1.443v5.67c0,0.796,0.647,1.443,1.443,1.443
		s1.443-0.647,1.443-1.443v-5.67C26.12,63.566,25.473,62.918,24.677,62.918z"/>
	<path fill="#FF9218" d="M30.351,62.918c-0.796,0-1.443,0.647-1.443,1.443v5.67c0,0.796,0.647,1.443,1.443,1.443
		s1.443-0.647,1.443-1.443v-5.67C31.794,63.566,31.147,62.918,30.351,62.918z"/>
	<path fill="#FF9218" d="M41.685,62.918c-0.796,0-1.443,0.647-1.443,1.443v5.67c0,0.796,0.647,1.443,1.443,1.443
		s1.443-0.647,1.443-1.443v-5.67C43.128,63.566,42.481,62.918,41.685,62.918z"/>
	<path fill="#FF9218" d="M36.021,62.918c-0.796,0-1.443,0.647-1.443,1.443v5.67c0,0.796,0.647,1.443,1.443,1.443
		s1.443-0.647,1.443-1.443v-5.67C37.464,63.566,36.817,62.918,36.021,62.918z"/>
	<path fill="#FF9218" d="M47.359,62.918c-0.796,0-1.443,0.647-1.443,1.443v5.67c0,0.796,0.647,1.443,1.443,1.443
		s1.443-0.647,1.443-1.443v-5.67C48.802,63.566,48.155,62.918,47.359,62.918z"/>
	<path fill="#FF9218" d="M53.029,62.918c-0.796,0-1.443,0.647-1.443,1.443v5.67c0,0.796,0.647,1.443,1.443,1.443
		s1.443-0.647,1.443-1.443v-5.67C54.472,63.566,53.824,62.918,53.029,62.918z"/>
	<path fill="#FF9218" d="M19.01,62.918c-0.796,0-1.443,0.647-1.443,1.443v5.67c0,0.796,0.647,1.443,1.443,1.443
		s1.443-0.647,1.443-1.443v-5.67C20.453,63.566,19.806,62.918,19.01,62.918z"/>
	<path fill="#FF9218" d="M24.675,9.113c0.796,0,1.443-0.647,1.443-1.443V2c0-0.796-0.647-1.443-1.443-1.443S23.232,1.204,23.232,2
		v5.669C23.232,8.465,23.879,9.113,24.675,9.113z"/>
	<path fill="#FF9218" d="M30.349,9.113c0.796,0,1.443-0.647,1.443-1.443V2c0-0.796-0.647-1.443-1.443-1.443S28.906,1.204,28.906,2
		v5.669C28.906,8.465,29.553,9.113,30.349,9.113z"/>
	<path fill="#FF9218" d="M41.683,9.113c0.796,0,1.443-0.647,1.443-1.443V2c0-0.796-0.647-1.443-1.443-1.443S40.24,1.204,40.24,2
		v5.669C40.24,8.465,40.887,9.113,41.683,9.113z"/>
	<path fill="#FF9218" d="M36.018,9.113c0.796,0,1.443-0.647,1.443-1.443V2c0-0.796-0.647-1.443-1.443-1.443S34.574,1.204,34.574,2
		v5.669C34.574,8.465,35.222,9.113,36.018,9.113z"/>
	<path fill="#FF9218" d="M47.357,9.113c0.796,0,1.443-0.647,1.443-1.443V2c0-0.796-0.647-1.443-1.443-1.443S45.913,1.204,45.913,2
		v5.669C45.913,8.465,46.561,9.113,47.357,9.113z"/>
	<path fill="#FF9218" d="M53.026,9.113c0.796,0,1.443-0.647,1.443-1.443V2c0-0.796-0.647-1.443-1.443-1.443S51.582,1.204,51.582,2
		v5.669C51.582,8.465,52.23,9.113,53.026,9.113z"/>
	<path fill="#FF9218" d="M19.008,9.113c0.796,0,1.443-0.647,1.443-1.443V2c0-0.796-0.647-1.443-1.443-1.443S17.565,1.204,17.565,2
		v5.669C17.565,8.465,18.212,9.113,19.008,9.113z"/>
</g>
</svg>
