<?xml version="1.0" encoding="utf-8"?>
<!-- Generator: Adobe Illustrator 16.0.0, SVG Export Plug-In . SVG Version: 6.00 Build 0)  -->
<!DOCTYPE svg PUBLIC "-//W3C//DTD SVG 1.1//EN" "http://www.w3.org/Graphics/SVG/1.1/DTD/svg11.dtd">
<svg version="1.1" id="flask" xmlns="http://www.w3.org/2000/svg" xmlns:xlink="http://www.w3.org/1999/xlink" x="0px" y="0px"
	 width="1752px" height="620px" viewBox="-526 40 1752 620" enable-background="new -526 40 1752 620" xml:space="preserve">
<polygon fill="#42B5E6" stroke="#0691CC" stroke-width="9" stroke-miterlimit="10" points="-343.585,654.867 -516.25,355.803 
	-343.585,56.737 1.745,56.737 174.41,355.803 1.745,654.867 "/>
<g>
	<path id="edge" fill="#FFFFFF" d="M-61.364,548.549c-2.725-21.451-7.161-55.958-11.451-89.323
		c-6.21-48.306-12.627-98.209-14.306-112.024l16.565-55.361c8.952-2.07,21.649-7.735,26.599-23.186
		c6.838-21.35-2.327-33.124-6.664-37.248l-3.096-3.097l-115.085-34.436l-4.459,0.757c-6.101,1.053-20.937,5.825-26.922,27.329
		c-4.409,15.826,2.524,27.188,8.512,33.585l-16.583,55.421c-16.202,19.188-97.04,114.599-131.108,154.405
		c-7.833,9.152-10.495,24.799-6.95,40.835c3.743,16.927,14.072,30.021,29.089,36.868c10.68,4.871,31.557,11.967,62.05,21.091
		c18.126,5.424,33.505,9.712,35.027,10.137c1.499,0.479,16.672,5.332,34.878,10.78c30.45,9.11,51.772,14.643,63.376,16.439
		c16.259,2.519,32.08-2.775,44.549-14.906C-66.09,575.661-59.816,560.72-61.364,548.549z M-307.632,521.59
		c-10.96-4.999-14.645-15.005-15.865-20.525c-2.141-9.683,0.037-17.707,2.266-20.312c37.68-44.027,133.085-156.127,134.043-157.256
		l0.727-0.855l21.584-72.133l1.288-4.385l-4.117-1.977c-0.503-0.241-12.275-6.021-9.526-15.895
		c1.576-5.662,3.937-9.091,7.026-10.217l103.892,31.086c1.908,2.621,1.97,6.774,0.177,12.373
		c-3.124,9.756-16.309,8.072-16.847,7.999l-4.566-0.663l-22.908,76.558l0.14,1.117c0.186,1.469,18.522,147.602,25.825,205.085
		c0.429,3.384-2.159,11.257-9.256,18.162c-4.068,3.959-12.677,10.322-24.612,8.472c-10.393-1.611-31.26-7.063-60.342-15.765
		c-18.92-5.661-34.612-10.7-34.769-10.75l-0.102-0.033l-0.104-0.028c-0.159-0.044-16.021-4.448-34.919-10.103
		C-277.646,532.853-298.061,525.953-307.632,521.59z"/>
	<path fill="#FFFFFF" d="M-155.904,391.941c1.988-11.439-4.841-22.815-16.242-26.229c-12.302-3.68-25.258,3.309-28.939,15.609
		c-1.683,5.624-1.13,11.383,1.135,16.332c9.875,1.326,19.38,1.468,27.53-0.38C-166.957,396.034-161.429,394.022-155.904,391.941z"/>
	<circle fill="#FFFFFF" cx="-140.382" cy="355.802" r="9.765"/>
	<path fill="#FFA541" d="M-92.124,552.36c-4.91-38.669-14.781-117.192-20.787-165.032c-13.374-6.927-28.093-0.894-42.836,4.659
		c-0.158,0.905-0.363,1.811-0.633,2.712c-3.681,12.302-16.636,19.291-28.939,15.609c-6.677-1.998-11.784-6.732-14.474-12.608
		c-11.324-1.521-23.138-4.606-33.982-8.127c-28.892,33.915-62.725,73.605-81.827,95.924c-0.982,1.559-2.426,8.065-0.313,15.5
		c1.859,6.54,5.64,11.149,11.239,13.701c9.262,4.223,29.341,10.999,58.065,19.593c18.825,5.633,34.622,10.017,34.779,10.063
		l0.251,0.069l0.248,0.079c0.157,0.05,15.785,5.069,34.627,10.707c28.753,8.604,49.271,13.975,59.33,15.533
		c6.095,0.946,11.809-0.835,16.98-5.292C-94.543,560.409-92.164,554.201-92.124,552.36z M-288.006,500.439
		c-2.706-0.809-4.244-3.659-3.434-6.366c0.81-2.706,3.661-4.243,6.367-3.434c2.707,0.81,4.244,3.66,3.434,6.366
		C-282.449,499.711-285.299,501.249-288.006,500.439z M-225.48,429.355c1.252-4.183,5.657-6.558,9.839-5.308
		c4.183,1.253,6.559,5.656,5.307,9.84s-5.656,6.559-9.839,5.308C-224.355,437.943-226.731,433.537-225.48,429.355z
		 M-230.549,503.071c-4.183-1.252-6.559-5.656-5.307-9.839c1.251-4.185,5.657-6.56,9.839-5.308c4.184,1.252,6.559,5.656,5.308,9.84
		C-221.961,501.946-226.365,504.323-230.549,503.071z M-197.288,489.24c-6.397-1.915-10.031-8.652-8.117-15.05
		c1.914-6.396,8.651-10.03,15.048-8.116c6.396,1.914,10.031,8.651,8.117,15.048C-184.154,487.52-190.892,491.154-197.288,489.24z
		 M-137.159,554.313c-5.166-1.547-8.102-6.988-6.556-12.154c1.546-5.168,6.988-8.103,12.154-6.557
		c5.168,1.547,8.102,6.987,6.556,12.154S-131.991,555.859-137.159,554.313z"/>
	<g id="bubbles-above">
		<circle fill="#FFFFFF" cx="-59.578" cy="87.788" r="12.09"/>
		<circle fill="#FFFFFF" cx="-107.565" cy="124.878" r="24.18"/>
		<circle fill="#FFFFFF" cx="-58.73" cy="153.081" r="7.905"/>
		<circle fill="#FFFFFF" cx="-87.838" cy="182.231" r="15.345"/>
	</g>
</g>
<g>
	<path fill="#42B5E6" d="M393.614,147.481c0,7.762-1.788,13.717-5.365,17.875c-3.577,4.156-6.993,7.345-10.245,9.56
		c-4.771,3.884-10.082,6.858-15.936,8.937c-5.854,2.078-12.034,3.117-18.538,3.117h-4.879v-39.488H228.724v121.79h110.253v-42.398
		h53.988v41.15c0,7.482-1.301,13.997-3.904,19.537c-2.601,5.546-6.126,10.119-10.568,13.716c-4.446,3.604-9.706,6.307-15.773,8.105
		c-6.073,1.806-12.471,2.702-19.188,2.702H222.869c-6.504,0-12.684-1.039-18.538-3.117c-5.854-2.079-11.007-4.988-15.448-8.729
		c-4.447-3.741-7.968-8.242-10.57-13.509c-2.602-5.261-3.902-11.223-3.902-17.874v-122.62c0-6.093,1.301-11.703,3.902-16.834
		c2.603-5.125,6.124-9.561,10.57-13.301c4.441-3.741,9.594-6.715,15.448-8.937c5.854-2.215,12.14-3.325,18.863-3.325H343.53
		c15.173,0,27.319,3.741,36.425,11.223C389.06,122.541,393.614,133.348,393.614,147.481z"/>
	<path fill="#42B5E6" d="M449.553,312.083c-4.99,0-9.65-0.76-13.985-2.286c-4.34-1.519-8.187-3.741-11.546-6.65
		c-3.365-2.91-6.018-6.301-7.968-10.184c-1.951-3.877-2.929-8.313-2.929-13.301V155.794h40.655v156.289H449.553z"/>
	<path fill="#42B5E6" d="M639.161,155.794H501.913c-9.105,0-16.153,2.013-21.139,6.027c-4.991,4.02-7.481,11.431-7.481,22.238v4.572
		h62.771v150.287h12.033c11.583,0.249,14.958,0.957,23.091,3.48c5.563,1.726,6.18,2.94,6.18,2.94V188.632h28.62
		c2.602,0,5.798-0.136,9.595-0.416c3.791-0.273,7.424-1.176,10.896-2.702c3.465-1.52,6.448-4.014,8.944-7.482
		c2.489-3.462,3.739-8.521,3.739-15.172V155.794z"/>
	<path fill="#42B5E6" d="M777.055,312.499l-58.217-94.771h63.419v-29.096H699.65v86.458c0,14.691-3.577,24.667-10.732,29.928
		c-3.47,2.494-7.48,4.157-12.034,4.988c-4.553,0.832-9.217,1.247-13.984,1.247h-4.228V155.794h126.84
		c11.489,0,20.54,2.845,27.155,8.521c6.612,5.683,9.92,13.788,9.92,24.316v29.512c0,9.976-3.038,17.808-9.105,23.484
		c-6.072,5.683-14.747,8.8-26.019,9.352l39.027,61.519H777.055z"/>
	<path fill="#42B5E6" d="M1009.914,280.493c0,5.546-0.974,10.255-2.925,14.132c-1.951,3.884-4.553,7.138-7.806,9.769
		c-3.254,2.637-7.156,4.572-11.709,5.819s-9.432,1.87-14.635,1.87h-90.414c-4.99,0-9.707-0.76-14.148-2.286
		c-4.446-1.519-8.293-3.741-11.546-6.65c-3.252-2.91-5.853-6.235-7.805-9.977c-1.95-3.741-2.927-8.105-2.927-13.093V187.8
		c0-4.709,0.977-9.073,2.927-13.093c1.952-4.014,4.553-7.411,7.805-10.185c3.253-2.766,7.1-4.917,11.546-6.442
		c4.441-1.52,9.158-2.286,14.148-2.286h90.414c11.057,0,20.002,2.773,26.831,8.313c6.83,5.546,10.243,13.581,10.243,24.109V280.493z
		 M969.261,188.632h-82.282v91.445h82.282V188.632z"/>
	<path fill="#42B5E6" d="M1168.951,311.252c-2.17,0-4.828-0.136-7.969-0.416c-3.144-0.273-6.505-0.967-10.081-2.078
		c-3.578-1.104-7.157-2.767-10.732-4.988c-3.578-2.215-6.887-5.125-9.92-8.729l-43.581-52.373l-16.261-19.536v88.12h-40.98V155.794
		h8.458c2.164,0,4.877,0.143,8.129,0.416c3.254,0.279,6.611,1.039,10.082,2.286c3.467,1.247,7.043,2.91,10.733,4.988
		c3.685,2.078,7.042,5.059,10.082,8.937l43.255,52.374c0.215,0.28,1.139,1.318,2.767,3.118c1.624,1.805,3.739,4.299,6.342,7.481
		c2.601,3.189,4.984,5.891,7.153,8.106v-56.114c0-11.08,3.466-19.121,10.407-24.109c6.938-4.988,15.937-7.482,26.995-7.482h3.252
		v155.458H1168.951z"/>
</g>
<g>
	<path fill="#FFA541" d="M740.12,538.309c-0.51,8.293-2.41,15.514-5.699,21.653c-3.297,6.147-7.539,11.058-12.73,14.743
		c-5.192,3.686-11.272,6.45-18.235,8.293c-6.97,1.843-14.504,2.764-22.608,2.764h-86.271c-8.108,0-15.707-0.993-22.796-2.994
		c-7.096-1.995-13.298-4.989-18.618-8.983c-5.319-3.989-9.498-8.905-12.539-14.744c-3.04-5.83-4.559-12.898-4.559-21.191v-182.9
		h5.699c17.727,0,31.785,4.146,42.173,12.439c10.385,8.294,15.58,20.271,15.58,35.935v134.986H740.12z"/>
</g>
<path fill="#FFA541" d="M921.019,585.762v-68.185h-96.103v27.182c0,8.293-1.08,14.743-3.229,19.35
	c-2.153,4.607-5.385,8.602-9.688,11.979c-4.054,3.074-8.865,5.456-14.432,7.141c-5.574,1.691-11.396,2.534-17.476,2.534h-3.037
	V450.776c0-6.753,1.139-12.511,3.418-17.276c2.28-4.759,5.442-8.675,9.497-11.748c4.047-3.067,8.67-5.37,13.864-6.91
	c5.188-1.534,10.696-2.305,16.524-2.305h148.902v173.226H921.019z M921.019,448.933h-96.103v32.25h96.103V448.933z"/>
<path fill="#FFA541" d="M1166.201,490.307c3.021,4.154,5.626,7.85,7.73,12.299c2.098,4.456,3.15,9.293,3.15,14.512v24.877
	c0,8.294-1.16,15.361-3.482,21.193c-2.322,5.837-5.42,10.365-9.286,13.591c-3.871,3.226-8.292,5.528-13.269,6.911
	c-4.973,1.381-10.229,2.072-15.754,2.072h-125.377V412.536h125.707c13.27,0,23.495,2.924,30.682,8.754
	c7.184,5.839,10.779,13.21,10.779,22.114v4.607c0,4.606-1.053,9.443-3.15,14.512c-2.104,5.068-5.032,8.983-8.79,11.748l-7.58,7.832
	L1166.201,490.307z M1150.142,482.104 M1135.621,448.933h-84.246v32.25h84.246V448.933z M1051.375,517.577v32.711h84.246v-32.711
	H1051.375z"/>
</svg>
