<?xml version="1.0" encoding="utf-8"?>
<!-- Generator: Adobe Illustrator 16.0.0, SVG Export Plug-In . SVG Version: 6.00 Build 0)  -->
<!DOCTYPE svg PUBLIC "-//W3C//DTD SVG 1.1//EN" "http://www.w3.org/Graphics/SVG/1.1/DTD/svg11.dtd">
<svg version="1.1" id="flask" xmlns="http://www.w3.org/2000/svg" xmlns:xlink="http://www.w3.org/1999/xlink" x="0px" y="0px"
	 width="1752px" height="620px" viewBox="-526 40 1752 620" enable-background="new -526 40 1752 620" xml:space="preserve">
<g>
	<circle fill="#FCFCFC" cx="-217.906" cy="431.621" r="7.905"/>
	<circle fill="#FCFCFC" cx="-228.283" cy="495.497" r="7.905"/>
	<circle fill="#FCFCFC" cx="-193.823" cy="477.657" r="12.09"/>
	<circle fill="#FCFCFC" cx="-286.54" cy="495.539" r="5.115"/>
	<path fill="#FCFCFC" d="M-170.206,218.035c-3.09,1.126-5.451,4.555-7.026,10.217c-2.749,9.874,9.023,15.653,9.526,15.895
		l4.117,1.977l-1.288,4.385l-21.584,72.133l-0.727,0.855c-0.958,1.129-96.364,113.229-134.043,157.256
		c-2.229,2.604-4.406,10.629-2.266,20.312c1.221,5.521,4.905,15.526,15.865,20.525c9.571,4.363,29.986,11.263,59.036,19.955
		c18.899,5.654,34.761,10.059,34.919,10.103l0.104,0.028l0.102,0.033c0.157,0.05,15.848,5.089,34.769,10.75
		c29.082,8.702,49.949,14.153,60.342,15.765c11.935,1.851,20.543-4.513,24.612-8.472c7.098-6.905,9.685-14.778,9.256-18.162
		c-7.303-57.483-25.639-203.616-25.825-205.085l-0.14-1.117l22.908-76.558l4.566,0.663c0.538,0.074,13.723,1.758,16.847-7.999
		c1.792-5.598,1.731-9.751-0.177-12.373L-170.206,218.035z M-149.738,353.003c1.546-5.167,6.988-8.102,12.155-6.556
		c5.167,1.546,8.102,6.989,6.556,12.155c-1.546,5.166-6.987,8.102-12.154,6.556C-148.348,363.612-151.283,358.17-149.738,353.003z
		 M-201.085,381.322c3.681-12.301,16.638-19.289,28.939-15.609c11.4,3.413,18.23,14.789,16.242,26.229
		c-5.525,2.081-11.053,4.094-16.516,5.333c-8.15,1.848-17.655,1.706-27.53,0.38C-202.215,392.704-202.767,386.946-201.085,381.322z
		 M-92.124,552.36c-0.04,1.842-2.419,8.05-8.271,13.09c-5.171,4.457-10.886,6.238-16.98,5.292
		c-10.06-1.559-30.577-6.93-59.33-15.533c-18.843-5.638-34.47-10.657-34.627-10.707l-0.248-0.079l-0.251-0.069
		c-0.158-0.046-15.955-4.43-34.779-10.063c-28.724-8.594-48.803-15.37-58.065-19.593c-5.6-2.552-9.38-7.161-11.239-13.701
		c-2.113-7.435-0.669-13.941,0.313-15.5c19.102-22.318,52.935-62.009,81.827-95.924c10.844,3.521,22.658,6.605,33.982,8.127
		c2.69,5.876,7.797,10.61,14.474,12.608c12.303,3.682,25.258-3.308,28.939-15.609c0.27-0.901,0.475-1.807,0.633-2.712
		c14.744-5.553,29.462-11.586,42.836-4.659C-106.905,435.167-97.034,513.691-92.124,552.36z"/>
	<circle fill="#FCFCFC" cx="-134.36" cy="544.957" r="9.765"/>
	<path fill="#FCFCFC" d="M1.745,56.737h-345.33L-516.25,355.803l172.666,299.064H1.745L174.41,355.803L1.745,56.737z
		 M-71.161,84.322c1.915-6.396,8.651-10.031,15.048-8.117s10.031,8.651,8.117,15.048s-8.652,10.031-15.049,8.117
		C-69.441,97.456-73.075,90.719-71.161,84.322z M-51.156,155.347c-1.251,4.182-5.656,6.559-9.839,5.307
		c-4.183-1.251-6.559-5.657-5.307-9.839s5.657-6.559,9.839-5.307C-52.281,146.76-49.905,151.165-51.156,155.347z M-73.136,186.63
		c-2.429,8.118-10.98,12.731-19.1,10.302c-8.119-2.43-12.731-10.981-10.302-19.1c2.43-8.12,10.981-12.731,19.1-10.302
		C-75.319,169.959-70.707,178.51-73.136,186.63z M-130.73,117.947c3.828-12.793,17.303-20.062,30.097-16.233
		c12.795,3.828,20.062,17.303,16.234,30.097c-3.828,12.794-17.302,20.063-30.097,16.234
		C-127.29,144.216-134.559,130.74-130.73,117.947z M-43.957,268.654c-4.95,15.451-17.647,21.116-26.599,23.186l-16.565,55.361
		c1.679,13.815,8.096,63.719,14.306,112.024c4.291,33.365,8.727,67.872,11.451,89.323c1.548,12.171-4.726,27.112-15.979,38.065
		c-12.469,12.131-28.29,17.425-44.549,14.906c-11.604-1.797-32.926-7.329-63.376-16.439c-18.206-5.448-33.379-10.301-34.878-10.78
		c-1.522-0.425-16.901-4.713-35.027-10.137c-30.493-9.124-51.37-16.22-62.05-21.091c-15.018-6.847-25.346-19.941-29.089-36.868
		c-3.545-16.036-0.882-31.683,6.95-40.835c34.068-39.807,114.906-135.217,131.108-154.405l16.583-55.421
		c-5.988-6.397-12.921-17.759-8.512-33.585c5.985-21.504,20.821-26.275,26.922-27.329l4.459-0.757l115.085,34.436l3.096,3.097
		C-46.284,235.53-37.119,247.304-43.957,268.654z"/>
</g>
<path fill="#FCFCFC" d="M330.265,172.394c-13.219,0-23.533,5.414-30.938,16.242c-7.407,10.828-11.109,25.758-11.109,44.789
	c0,39.564,15.047,59.344,45.141,59.344c9.092,0,17.905-1.266,26.438-3.797c8.529-2.531,17.107-5.577,25.734-9.141v46.969
	c-17.156,7.594-36.563,11.391-58.219,11.391c-31.032,0-54.822-9-71.367-27c-16.548-18-24.82-44.016-24.82-78.047
	c0-21.281,4.008-39.984,12.023-56.109c8.016-16.124,19.547-28.523,34.594-37.195c15.047-8.67,32.741-13.008,53.086-13.008
	c22.219,0,43.453,4.83,63.703,14.484l-17.016,43.734c-7.594-3.562-15.188-6.561-22.781-9
	C347.14,173.614,338.984,172.394,330.265,172.394z"/>
<rect x="422.656" y="176.051" fill="#FCFCFC" width="54.984" height="159.328"/>
<path fill="#FCFCFC" d="M594.078,294.738c7.404,0,16.264-1.828,26.578-5.484v40.078c-7.407,3.188-14.463,5.462-21.164,6.82
	c-6.704,1.358-14.555,2.039-23.555,2.039c-18.471,0-31.781-4.522-39.938-13.57c-8.156-9.046-12.234-22.944-12.234-41.695v-65.672
	H504.5v-22.359l24.469-17.297l14.203-33.469h36v31.922h39.094v41.203h-39.094v62.016
	C579.172,289.583,584.139,294.738,594.078,294.738z"/>
<path fill="#FCFCFC" d="M744.687,173.238c4.781,0,9.327,0.375,13.641,1.125l3.094,0.563l-4.922,51.891
	c-4.5-1.125-10.736-1.688-18.703-1.688c-12.002,0-20.721,2.742-26.156,8.227c-5.438,5.484-8.156,13.383-8.156,23.695v124.329
	l-54.984-38V176.051h40.922L698,201.504h2.672c4.592-8.438,10.99-15.258,19.195-20.461
	C728.069,175.84,736.342,173.238,744.687,173.238z"/>
<path fill="#FCFCFC" d="M935.797,255.363c0,26.064-7.01,46.384-21.023,60.961c-14.017,14.579-33.634,21.867-58.852,21.867
	c-24.188,0-43.432-7.453-57.727-22.359c-14.298-14.906-21.445-35.062-21.445-60.469c0-25.967,7.007-46.147,21.023-60.539
	c14.014-14.39,33.68-21.586,58.992-21.586c15.655,0,29.482,3.329,41.484,9.984c11.999,6.658,21.256,16.196,27.773,28.617
	C932.538,224.263,935.797,238.769,935.797,255.363z M832.578,255.363c0,13.689,1.828,24.117,5.484,31.289
	s9.795,10.758,18.422,10.758c8.529,0,14.555-3.586,18.07-10.758s5.273-17.6,5.273-31.289c0-13.592-1.782-23.858-5.344-30.797
	c-3.564-6.937-9.657-10.406-18.281-10.406c-8.438,0-14.484,3.445-18.141,10.336S832.578,241.676,832.578,255.363z"/>
<path fill="#FCFCFC" d="M1067.703,335.379v-86.906c0-10.593-1.525-18.584-4.57-23.977c-3.048-5.39-7.945-8.086-14.695-8.086
	c-9.281,0-15.985,3.705-20.109,11.109c-4.127,7.407-6.188,20.109-6.188,38.109v69.75h-54.984V176.051h41.484l6.891,19.688h3.234
	c4.687-7.5,11.18-13.125,19.477-16.875c8.297-3.749,17.835-5.625,28.617-5.625c17.624,0,31.335,5.111,41.133,15.328
	c9.795,10.219,14.695,24.609,14.695,43.172v103.641H1067.703z"/>
<path fill="#FCFCFC" d="M648.5,580.5V364.906l54.841,38v129.734h73.89V580.5H648.5z"/>
<path fill="#FCFCFC" d="M898.911,580.5l-9.843-21.094h-1.05c-6.913,9.189-13.957,15.469-21.13,18.844
	c-7.176,3.375-16.451,5.063-27.824,5.063c-14,0-25.024-4.5-33.073-13.5c-8.051-9-12.074-21.656-12.074-37.969
	c0-16.967,5.513-29.602,16.537-37.898s26.99-12.959,47.903-13.992l24.805-0.844v-2.25c0-13.124-6.037-19.688-18.111-19.688
	c-10.851,0-24.631,3.938-41.342,11.813l-14.83-36.281c17.324-9.563,39.196-14.344,65.621-14.344
	c19.073,0,33.838,5.063,44.295,15.188c10.454,10.125,16.684,24.282,16.684,42.469V580.5H898.911z M860.851,544.5
	c6.211,0,11.526-2.109,15.945-6.328c4.417-4.219,6.628-9.703,6.628-16.453v-12.375l-11.812,0.563
	c-16.888,0.657-25.33,7.313-25.33,19.969C846.283,539.627,851.138,544.5,860.851,544.5z"/>
<path fill="#FCFCFC" d="M1057.976,418.36c16.186,0,29.025,7.267,38.52,21.797c9.493,14.533,14.24,34.643,14.24,60.328
	c0,25.875-4.79,46.149-14.371,60.82c-9.581,14.674-22.902,22.008-39.964,22.008c-5.512,0-10.413-0.633-14.699-1.898
	c-4.288-1.266-8.116-3.023-11.483-5.273c-3.369-2.25-4.284-5.998-8.746-11.25h-3.15l-8.137,15.609h-43.029V361.688h54.316v49.5
	c0,5.906-0.613,16.08-1.838,30.516h1.838c4.987-8.248,7.739-14.203,14.259-17.859C1042.248,420.188,1049.663,418.36,1057.976,418.36
	z M1039.209,461.531c-7.176,0-12.425,2.672-15.749,8.016c-3.327,5.344-1.987,13.735-1.987,25.172v7.734
	c0,13.032-1.34,22.384,1.987,28.055c3.324,5.674,8.747,8.508,16.274,8.508c6.037,0,10.673-3.305,13.911-9.914
	c3.235-6.609,4.856-16.334,4.856-29.18C1058.502,474.328,1052.07,461.531,1039.209,461.531z"/>
<rect x="422.656" y="126.832" fill="#FCFCFC" width="54.984" height="31.668"/>
</svg>
