<?xml version="1.0" encoding="utf-8"?>
<!-- Generator: Adobe Illustrator 16.0.0, SVG Export Plug-In . SVG Version: 6.00 Build 0)  -->
<!DOCTYPE svg PUBLIC "-//W3C//DTD SVG 1.1//EN" "http://www.w3.org/Graphics/SVG/1.1/DTD/svg11.dtd">
<svg version="1.1" id="flask" xmlns="http://www.w3.org/2000/svg" xmlns:xlink="http://www.w3.org/1999/xlink" x="0px" y="0px"
	 width="1752px" height="620px" viewBox="-526 40 1752 620" enable-background="new -526 40 1752 620" xml:space="preserve">
<polygon fill="#42B5E6" stroke="#0691CC" stroke-width="9" stroke-miterlimit="10" points="-312.309,649.066 -484.974,350.001 
	-312.309,50.935 33.021,50.935 205.686,350.001 33.021,649.066 "/>
<g>
	<path id="edge" fill="#FFFFFF" d="M-30.088,542.747c-2.725-21.451-7.161-55.958-11.451-89.323
		c-6.21-48.306-12.627-98.209-14.306-112.024l16.565-55.361c8.952-2.07,21.649-7.735,26.599-23.186
		c6.838-21.35-2.327-33.124-6.664-37.248l-3.096-3.097l-115.085-34.436l-4.459,0.757c-6.101,1.053-20.937,5.825-26.922,27.329
		c-4.409,15.826,2.524,27.188,8.512,33.585l-16.583,55.421c-16.202,19.188-97.04,114.599-131.108,154.405
		c-7.833,9.152-10.495,24.799-6.95,40.835c3.743,16.927,14.072,30.021,29.089,36.868c10.68,4.871,31.557,11.967,62.05,21.091
		c18.126,5.424,33.505,9.712,35.027,10.137c1.499,0.479,16.672,5.332,34.878,10.78c30.45,9.11,51.772,14.643,63.376,16.439
		c16.259,2.519,32.08-2.775,44.549-14.906C-34.814,569.86-28.54,554.918-30.088,542.747z M-276.356,515.788
		c-10.96-4.999-14.645-15.005-15.865-20.525c-2.141-9.683,0.037-17.707,2.266-20.312c37.68-44.027,133.085-156.127,134.043-157.256
		l0.727-0.855l21.584-72.133l1.288-4.385l-4.117-1.977c-0.503-0.241-12.275-6.021-9.526-15.895
		c1.576-5.662,3.937-9.091,7.026-10.217l103.892,31.086c1.908,2.621,1.97,6.774,0.177,12.373
		c-3.124,9.756-16.309,8.072-16.847,7.999l-4.566-0.663l-22.908,76.558l0.14,1.117c0.186,1.469,18.522,147.602,25.825,205.085
		c0.429,3.384-2.159,11.257-9.256,18.162c-4.068,3.959-12.677,10.322-24.612,8.472c-10.393-1.611-31.26-7.063-60.342-15.765
		c-18.92-5.661-34.612-10.7-34.769-10.75l-0.102-0.033l-0.104-0.028c-0.159-0.044-16.021-4.448-34.919-10.103
		C-246.37,527.051-266.785,520.152-276.356,515.788z"/>
	<path fill="#FFFFFF" d="M-124.628,386.139c1.988-11.439-4.841-22.815-16.242-26.229c-12.302-3.68-25.258,3.309-28.939,15.609
		c-1.683,5.624-1.13,11.383,1.135,16.332c9.875,1.326,19.38,1.468,27.53-0.38C-135.681,390.233-130.153,388.22-124.628,386.139z"/>
	<circle fill="#FFFFFF" cx="-109.106" cy="350" r="9.765"/>
	<path fill="#FFA541" d="M-60.848,546.558c-4.91-38.669-14.781-117.192-20.787-165.032c-13.374-6.927-28.093-0.894-42.836,4.659
		c-0.158,0.905-0.363,1.811-0.633,2.712c-3.681,12.302-16.636,19.291-28.939,15.609c-6.677-1.998-11.784-6.732-14.474-12.608
		c-11.324-1.521-23.138-4.606-33.982-8.127c-28.892,33.915-62.725,73.605-81.827,95.924c-0.982,1.559-2.426,8.065-0.313,15.5
		c1.859,6.54,5.64,11.149,11.239,13.701c9.262,4.223,29.341,10.999,58.065,19.593c18.825,5.633,34.622,10.017,34.779,10.063
		l0.251,0.069l0.248,0.079c0.157,0.05,15.785,5.069,34.627,10.707c28.753,8.604,49.271,13.975,59.33,15.533
		c6.095,0.946,11.809-0.835,16.98-5.292C-63.267,554.608-60.888,548.4-60.848,546.558z M-256.73,494.637
		c-2.706-0.809-4.244-3.659-3.434-6.366c0.81-2.706,3.661-4.243,6.367-3.434c2.707,0.81,4.244,3.66,3.434,6.366
		C-251.173,493.909-254.023,495.448-256.73,494.637z M-194.204,423.553c1.252-4.183,5.657-6.558,9.839-5.308
		c4.183,1.253,6.559,5.656,5.307,9.84s-5.656,6.559-9.839,5.308C-193.079,432.141-195.455,427.736-194.204,423.553z
		 M-199.273,497.269c-4.183-1.252-6.559-5.656-5.307-9.839c1.251-4.185,5.657-6.56,9.839-5.308c4.184,1.252,6.559,5.656,5.308,9.84
		C-190.685,496.144-195.09,498.521-199.273,497.269z M-166.012,483.439c-6.397-1.915-10.031-8.652-8.117-15.05
		c1.914-6.396,8.651-10.03,15.048-8.116c6.396,1.914,10.031,8.651,8.117,15.048C-152.878,481.718-159.616,485.352-166.012,483.439z
		 M-105.884,548.511c-5.166-1.547-8.102-6.988-6.556-12.154c1.546-5.168,6.988-8.103,12.154-6.557
		c5.168,1.547,8.102,6.987,6.556,12.154S-100.716,550.057-105.884,548.511z"/>
	<g id="bubbles-above">
		<circle fill="#FFFFFF" cx="-28.302" cy="81.986" r="12.09"/>
		<circle fill="#FFFFFF" cx="-76.289" cy="119.077" r="24.18"/>
		<circle fill="#FFFFFF" cx="-27.454" cy="147.28" r="7.905"/>
		<circle fill="#FFFFFF" cx="-56.562" cy="176.429" r="15.345"/>
	</g>
</g>
<path fill="#42B5E6" d="M330.265,172.394c-13.219,0-23.533,5.414-30.938,16.242c-7.407,10.828-11.109,25.758-11.109,44.789
	c0,39.564,15.047,59.344,45.141,59.344c9.092,0,17.905-1.266,26.438-3.797c8.529-2.531,17.107-5.577,25.734-9.141v46.969
	c-17.156,7.594-36.563,11.391-58.219,11.391c-31.032,0-54.822-9-71.367-27c-16.548-18-24.82-44.016-24.82-78.047
	c0-21.281,4.008-39.984,12.023-56.109c8.016-16.124,19.547-28.523,34.594-37.195c15.047-8.67,32.741-13.008,53.086-13.008
	c22.219,0,43.453,4.83,63.703,14.484l-17.016,43.734c-7.594-3.562-15.188-6.561-22.781-9
	C347.14,173.614,338.984,172.394,330.265,172.394z"/>
<rect x="422.656" y="176.051" fill="#42B5E6" width="54.984" height="159.328"/>
<path fill="#42B5E6" d="M594.078,294.738c7.404,0,16.264-1.828,26.578-5.484v40.078c-7.407,3.188-14.463,5.462-21.164,6.82
	c-6.704,1.358-14.555,2.039-23.555,2.039c-18.471,0-31.781-4.522-39.938-13.57c-8.156-9.046-12.234-22.944-12.234-41.695v-65.672
	H504.5v-22.359l24.469-17.297l14.203-33.469h36v31.922h39.094v41.203h-39.094v62.016
	C579.172,289.583,584.139,294.738,594.078,294.738z"/>
<path fill="#42B5E6" d="M744.687,173.238c4.781,0,9.327,0.375,13.641,1.125l3.094,0.563l-4.922,51.891
	c-4.5-1.125-10.736-1.688-18.703-1.688c-12.002,0-20.721,2.742-26.156,8.227c-5.438,5.484-8.156,13.383-8.156,23.695v124.329
	l-54.984-38V176.051h40.922L698,201.504h2.672c4.592-8.438,10.99-15.258,19.195-20.461
	C728.069,175.84,736.342,173.238,744.687,173.238z"/>
<path fill="#42B5E6" d="M935.797,255.363c0,26.064-7.01,46.384-21.023,60.961c-14.017,14.579-33.634,21.867-58.852,21.867
	c-24.188,0-43.432-7.453-57.727-22.359c-14.298-14.906-21.445-35.062-21.445-60.469c0-25.967,7.007-46.147,21.023-60.539
	c14.014-14.39,33.68-21.586,58.992-21.586c15.655,0,29.482,3.329,41.484,9.984c11.999,6.658,21.256,16.196,27.773,28.617
	C932.538,224.263,935.797,238.769,935.797,255.363z M832.578,255.363c0,13.689,1.828,24.117,5.484,31.289
	s9.795,10.758,18.422,10.758c8.529,0,14.555-3.586,18.07-10.758s5.273-17.6,5.273-31.289c0-13.592-1.782-23.858-5.344-30.797
	c-3.564-6.937-9.657-10.406-18.281-10.406c-8.438,0-14.484,3.445-18.141,10.336S832.578,241.676,832.578,255.363z"/>
<path fill="#42B5E6" d="M1067.703,335.379v-86.906c0-10.593-1.525-18.584-4.57-23.977c-3.048-5.39-7.945-8.086-14.695-8.086
	c-9.281,0-15.985,3.705-20.109,11.109c-4.127,7.407-6.188,20.109-6.188,38.109v69.75h-54.984V176.051h41.484l6.891,19.688h3.234
	c4.687-7.5,11.18-13.125,19.477-16.875c8.297-3.749,17.835-5.625,28.617-5.625c17.624,0,31.335,5.111,41.133,15.328
	c9.795,10.219,14.695,24.609,14.695,43.172v103.641H1067.703z"/>
<path fill="#FFA541" d="M648.5,580.5V364.906l54.841,38v129.734h73.89V580.5H648.5z"/>
<path fill="#FFA541" d="M898.911,580.5l-9.843-21.094h-1.05c-6.913,9.189-13.957,15.469-21.13,18.844
	c-7.176,3.375-16.451,5.063-27.824,5.063c-14,0-25.024-4.5-33.073-13.5c-8.051-9-12.074-21.656-12.074-37.969
	c0-16.967,5.513-29.602,16.537-37.898s26.99-12.959,47.903-13.992l24.805-0.844v-2.25c0-13.124-6.037-19.688-18.111-19.688
	c-10.851,0-24.631,3.938-41.342,11.813l-14.83-36.281c17.324-9.563,39.196-14.344,65.621-14.344
	c19.073,0,33.838,5.063,44.295,15.188c10.454,10.125,16.684,24.282,16.684,42.469V580.5H898.911z M860.851,544.5
	c6.211,0,11.526-2.109,15.945-6.328c4.417-4.219,6.628-9.703,6.628-16.453v-12.375l-11.812,0.563
	c-16.888,0.657-25.33,7.313-25.33,19.969C846.283,539.627,851.138,544.5,860.851,544.5z"/>
<path fill="#FFA541" d="M1057.976,418.36c16.186,0,29.025,7.267,38.52,21.797c9.493,14.533,14.24,34.643,14.24,60.328
	c0,25.875-4.79,46.149-14.371,60.82c-9.581,14.674-22.902,22.008-39.964,22.008c-5.512,0-10.413-0.633-14.699-1.898
	c-4.288-1.266-8.116-3.023-11.483-5.273c-3.369-2.25-4.284-5.998-8.746-11.25h-3.15l-8.137,15.609h-43.029V361.688h54.316v49.5
	c0,5.906-0.613,16.08-1.838,30.516h1.838c4.987-8.248,7.739-14.203,14.259-17.859C1042.248,420.188,1049.663,418.36,1057.976,418.36
	z M1039.209,461.531c-7.176,0-12.425,2.672-15.749,8.016c-3.327,5.344-1.987,13.735-1.987,25.172v7.734
	c0,13.032-1.34,22.384,1.987,28.055c3.324,5.674,8.747,8.508,16.274,8.508c6.037,0,10.673-3.305,13.911-9.914
	c3.235-6.609,4.856-16.334,4.856-29.18C1058.502,474.328,1052.07,461.531,1039.209,461.531z"/>
<rect x="422.656" y="126.832" fill="#FFA541" width="54.984" height="31.668"/>
</svg>
