<?xml version="1.0" encoding="utf-8"?>
<!-- Generator: Adobe Illustrator 16.0.0, SVG Export Plug-In . SVG Version: 6.00 Build 0)  -->
<!DOCTYPE svg PUBLIC "-//W3C//DTD SVG 1.1//EN" "http://www.w3.org/Graphics/SVG/1.1/DTD/svg11.dtd">
<svg version="1.1" id="Layer_1" xmlns="http://www.w3.org/2000/svg" xmlns:xlink="http://www.w3.org/1999/xlink" x="0px" y="0px"
	 width="512px" height="575.99px" viewBox="0 0 512 575.99" enable-background="new 0 0 512 575.99" xml:space="preserve">
<polygon fill="none" points="256,168.539 264.484,168.539 256,172.062 256,233.902 408.905,168.531 415.26,105.729 256,105.729 "/>
<polygon fill="none" points="332.95,296.249 328.012,378.087 256,398.362 256,466.966 256.042,466.98 386.561,428.869 
	403.503,234.14 256,234.14 256,296.015 "/>
<polygon opacity="0.8" fill="#42B5E6" points="255.81,105.729 93.529,105.729 101.295,168.539 255.808,168.539 256,168.539 
	256,105.729 "/>
<polygon opacity="0.8" fill="#42B5E6" fill-opacity="0.8" points="255.808,172.142 106.94,234.149 111.874,295.525 255.809,296.014 
	256,296.015 256,234.14 255.81,234.14 255.44,234.14 255.81,233.983 256,233.902 256,172.062 "/>
<polygon opacity="0.8" fill="#42B5E6" points="255.81,398.415 255.81,398.336 255.212,398.509 185.483,380.899 181.25,330.1 
	181.019,330.1 116.338,330.1 116.109,330.1 124.58,428.17 255.81,466.98 255.81,466.902 256,466.966 256,398.362 "/>
<path fill="#FFFFFF" fill-opacity="0.7" d="M0,0l47.995,520.002l208.001,55.988l207.993-55.988L512,0H0z M408.905,168.531
	L256,233.902l-0.189,0.081l-0.37,0.157h0.37H256h147.503l-16.941,194.729l-130.52,38.11L256,466.966l-0.189-0.064v0.078
	l-131.23-38.81l-8.471-98.07h0.229h64.682h0.23l4.233,50.799l69.729,17.61l0.599-0.173v0.079l0.189-0.054l72.013-20.274
	l4.938-81.838L256,296.015l-0.19-0.001l-143.936-0.489l-4.934-61.376l148.868-62.007l0.191-0.08l8.484-3.523H256h-0.191H101.295
	l-7.766-62.811H255.81H256H415.26L408.905,168.531z"/>
</svg>
