<?xml version="1.0" encoding="utf-8"?>
<!-- Generator: Adobe Illustrator 16.0.0, SVG Export Plug-In . SVG Version: 6.00 Build 0)  -->
<!DOCTYPE svg PUBLIC "-//W3C//DTD SVG 1.1//EN" "http://www.w3.org/Graphics/SVG/1.1/DTD/svg11.dtd">
<svg version="1.1" id="Layer_1" xmlns="http://www.w3.org/2000/svg" xmlns:xlink="http://www.w3.org/1999/xlink" x="0px" y="0px"
	 width="600px" height="505px" viewBox="200 9.5 600 505" enable-background="new 200 9.5 600 505" xml:space="preserve">
<path opacity="0.7" fill="#FFFFFF" d="M666.472,165.968h6.981c8.946,0,14.91,4.534,17.893,13.601l0.437,3.584v18.448l-0.873,0.844
	h-2.509c-15.201,0-22.801-6.816-22.801-20.452v-15.179L666.472,165.968z M666.472,224.265h5.346c9.456,0,15.674,3.866,18.656,11.598
	c0.873,2.811,1.309,5.623,1.309,8.433v111.006l-0.873,0.844h-3.71c-10.254,0-16.909-3.725-19.965-11.175
	c-1.09-2.529-1.636-5.621-1.636-9.275V225.11L666.472,224.265z"/>
<path opacity="0.7" fill="#FFFFFF" d="M768.488,365.657c-8.02-0.854-15.255-2.856-21.626-5.996l0.041,0.119
	c0.75,2.244,2.437,6.168,6.21,12.117c8.773,13.832,9.57,28.793,9.608,33.049l0.055,0.866c0.277,2.286,2.092,22.628-19.451,32.896
	c-16.59,7.906-26.638,8.55-29.321,8.559l-0.651,0.027c-10.059,0.799-31.165,3.099-39.055,6.081
	c-4.293,1.624-9.721,2.892-17.233,4.646l-0.303,0.071c-2.718,0.635-5.699,1.332-8.972,2.128
	c-11.017,2.685-28.37,7.217-51.808,15.584c-15.255,5.449-39.6,12.704-68.948,16.327c-11.688,1.445-23.232,2.177-34.313,2.177h-0.006
	c-31.653-0.001-59.964-5.871-84.129-17.439l-0.111-0.056l-0.108-0.056c-2.127-1.116-52.659-27.882-103.679-75.982
	c-33.539-31.62-58.438-75.067-68.315-119.202c-3.305-14.768-4.687-28.573-4.103-41.036l0.051-0.552
	c0.062-0.504,0.377-3.113,0.802-7.132c3.79-35.776,4.009-63.86,0.567-73.294l-0.514-1.126c-2.094-3.767-12.507-23.473-11.94-41.526
	c0.673-21.428,13.824-34.709,36.081-36.438l0.269-0.021l0.341,0.002c1.101-0.001,27.319-0.167,57.649-12.525
	c0.19-0.074,19.409-7.615,28.854-12.359c9.691-4.87,33.16-15.268,42.688-18.401c0.396-0.13,0.866-0.273,1.403-0.428
	c9.128-2.618,32.89-7.049,64.053-7.049c26.499,0,52.681,3.156,77.819,9.387l0.161,0.038c0.161,0.04,0.784,0.193,1.777,0.453
	c10.188,2.662,45.307,12.589,69.593,28.594c2.472,1.581,24.466,15.754,35.543,26.13l0.786,0.648
	c7.142,5.19,44.391,34.69,76.354,106.034c0.929,2.075,1.83,4.209,2.739,6.331v-38.093c-29.871-55.866-61.139-81.147-68.73-86.749
	c-11.972-11.088-33.351-24.947-37.46-27.576c-26.334-17.354-63.684-27.93-74.508-30.759c-0.926-0.241-1.562-0.401-1.866-0.476
	l-0.157-0.039c-26.518-6.581-54.124-9.917-82.05-9.917c-33.062,0-58.779,4.847-68.769,7.713c-0.785,0.226-1.461,0.433-2.024,0.62
	c-10.7,3.518-34.668,14.164-44.989,19.35c-8.606,4.325-27.239,11.652-27.495,11.752l-0.22,0.089
	c-27.222,11.093-50.204,11.24-51.095,11.241l-0.995-0.008l-0.995,0.077c-30.713,2.386-50.37,22.27-51.299,51.896
	c-0.655,20.858,9.747,41.958,13.537,48.913c1.591,5.489,2.502,27.424-1.573,65.888c-0.411,3.89-0.717,6.409-0.783,6.957l-0.14,1.634
	c-0.646,13.839,0.854,29.026,4.459,45.139c10.546,47.125,37.13,93.513,72.935,127.268c52.645,49.634,105.13,77.434,107.342,78.594
	l0.754,0.377c26.482,12.68,57.265,19.108,91.489,19.109h0.007c11.78,0,24.031-0.775,36.412-2.305
	c30.894-3.815,56.523-11.454,72.586-17.189c22.688-8.101,39.468-12.484,50.11-15.077c3.22-0.783,6.15-1.469,8.823-2.094l0.304-0.07
	c8.146-1.902,14.03-3.278,19.37-5.298c4.154-1.568,19.708-3.854,34.081-5.012c5.85-0.073,18.064-1.543,36.237-10.207
	c25.466-12.137,29.979-36.072,28.619-48.659C779.176,398.825,778.025,381.936,768.488,365.657z"/>
<path opacity="0.7" fill="#FFFFFF" d="M728.565,166.284h4.582c10.109,0,16.729,4.078,19.855,12.229l0.874,6.115v37.634h17.345
	c13.238,1.477,19.855,7.59,19.855,18.343v6.114l-0.872,0.844h-36.327v61.249c0,9.698,3.524,16.376,10.583,20.028
	c4.289,1.618,9.78,2.425,16.472,2.425c5.02,1.476,8.802,4.183,11.346,8.117c2.038,3.374,3.058,6.924,3.058,10.647v5.271
	l-0.873,0.844h-16.911c-22.838,0-38.328-9.1-46.477-27.304c-1.673-3.864-2.944-9.451-3.817-16.762l0.436-10.227V167.128
	L728.565,166.284z"/>
<g opacity="0.8">
	<path fill="#FFA541" d="M600.912,237.847c-0.457-26.688-22.111-50.472-48.853-50.472c-15.463,0-29.089,8.092-38.063,19.968
		c-8.972-11.876-22.597-19.968-38.063-19.968c-26.741,0-48.393,23.784-48.85,50.472h-0.088c0,0.165,0.032,0.316,0.032,0.478
		c0,0.12-0.032,0.239-0.032,0.372c0,0.749,0.186,1.314,0.218,2.034c2.392,68.011,86.097,95.894,86.097,95.894
		s84.934-27.852,87.445-95.788c0.043-0.76,0.239-1.359,0.239-2.141c0-0.132-0.032-0.252-0.032-0.372
		c0-0.173,0.032-0.313,0.032-0.478H600.912z"/>
</g>
</svg>
