<?xml version="1.0" encoding="utf-8"?>
<!-- Generator: Adobe Illustrator 16.0.0, SVG Export Plug-In . SVG Version: 6.00 Build 0)  -->
<!DOCTYPE svg PUBLIC "-//W3C//DTD SVG 1.1//EN" "http://www.w3.org/Graphics/SVG/1.1/DTD/svg11.dtd">
<svg version="1.1" id="Layer_1" xmlns="http://www.w3.org/2000/svg" xmlns:xlink="http://www.w3.org/1999/xlink" x="0px" y="0px"
	 width="285px" height="323px" viewBox="57.5 38.5 285 323" enable-background="new 57.5 38.5 285 323" xml:space="preserve">
<title>HTML5 Logo</title>
<polygon fill="none" points="243.562,205.717 239.445,251.728 202.655,261.657 202.655,298.546 272.607,279.159 273.14,273.166 
	281.476,179.767 282.342,170.24 272.783,170.24 202.655,170.24 202.655,205.717 "/>
<polygon fill="none" points="202.655,133.911 285.457,133.911 285.57,133.911 286.283,125.937 287.898,107.952 288.748,98.434 
	202.655,98.434 "/>
<g opacity="0.8">
	<polygon fill="#FFA541" points="199.999,98.434 199.877,98.434 111.04,98.434 111.889,107.952 120.609,205.717 199.877,205.717 
		199.999,205.717 202.655,205.717 202.655,170.24 199.999,170.24 199.877,170.24 153.054,170.24 149.812,133.911 199.877,133.911 
		199.999,133.911 202.655,133.911 202.655,98.434 	"/>
	<polygon fill="#FFA541" points="199.877,262.407 199.877,262.41 199.844,262.419 160.333,251.75 157.807,223.455 138.608,223.455 
		122.194,223.455 127.164,279.159 199.836,299.334 199.999,299.288 199.999,299.282 202.655,298.546 202.655,261.657 	"/>
</g>
<path fill="#FFFFFF" fill-opacity="0.7" d="M58.307,39.305l25.789,289.264l115.73,32.127l116.048-32.173l25.818-289.218H58.307z
	 M287.898,107.952l-1.615,17.985l-0.713,7.975h-0.113h-82.802h-2.656h-0.122h-50.065l3.242,36.329h46.823h0.122h2.656h70.128h9.559
	l-0.865,9.526l-8.336,93.399l-0.533,5.993l-69.952,19.387l-2.656,0.736v0.006l-0.163,0.046l-72.672-20.175l-4.971-55.704h16.414
	h19.199l2.526,28.295l39.511,10.669l0.033-0.009v-0.003l2.778-0.75l36.79-9.93l4.117-46.011h-40.907h-2.656h-0.122h-79.269
	l-8.72-97.765l-0.849-9.518h88.837h0.122h2.656h86.093L287.898,107.952z"/>
</svg>
