<?xml version="1.0" encoding="utf-8"?>
<!-- Generator: Adobe Illustrator 16.0.0, SVG Export Plug-In . SVG Version: 6.00 Build 0)  -->
<!DOCTYPE svg PUBLIC "-//W3C//DTD SVG 1.1//EN" "http://www.w3.org/Graphics/SVG/1.1/DTD/svg11.dtd">
<svg version="1.1" id="Layer_1" xmlns="http://www.w3.org/2000/svg" xmlns:xlink="http://www.w3.org/1999/xlink" x="0px" y="0px"
	 width="1000px" height="1000px" viewBox="0 0 1000 1000" enable-background="new 0 0 1000 1000" xml:space="preserve">
<g>
	<path fill="none" d="M777.295,240.051h-7.813c-16.926,0-31.573,5.533-43.943,16.601c-12.369,11.067-19.204,25.064-20.506,41.989
		v0.001c-2.604,18.229,1.953,34.503,13.671,48.825c11.719,14.322,26.691,22.46,44.919,24.413c18.229,1.953,34.178-2.93,47.85-14.648
		c13.671-11.719,21.483-26.691,23.436-44.919c1.953-18.228-2.604-34.177-13.671-47.849S795.523,242.655,777.295,240.051z"/>
	<path fill="none" d="M738.235,706.819h-5.859c-11.718,0-22.134,4.231-31.247,12.694c-9.114,8.463-13.672,18.553-13.672,30.271
		l-0.001,0.001c-2.604,14.322,0.326,26.365,8.789,36.13c8.464,9.766,18.88,15.624,31.248,17.577
		c12.369,1.954,23.762-1.302,34.179-9.765c10.416-8.463,16.275-19.53,17.576-33.201c1.302-13.671-2.279-25.389-10.741-35.154
		C760.044,715.607,749.953,709.422,738.235,706.819z"/>
	<path fill="none" d="M310.528,466.599c-24.738,0-45.896,8.788-63.473,26.366c-17.578,17.577-26.366,38.734-26.366,63.473
		s8.788,45.896,26.366,63.473c17.577,17.578,38.734,26.366,63.473,26.366s45.896-8.788,63.474-26.366
		c17.577-17.577,26.365-38.734,26.365-63.473s-8.788-45.896-26.365-63.473C356.424,475.387,335.266,466.599,310.528,466.599z"/>
	<path fill="#FFA541" fill-opacity="0.8" d="M529.263,615.028l93.744-9.765v-97.65l-93.744-7.812
		c-5.208-19.53-13.021-37.758-23.437-54.685l60.543-74.214l-68.354-68.354l-74.214,60.543
		c-16.926-10.416-35.154-18.229-54.685-23.437l-9.765-93.743h-97.65l-7.812,93.743c-19.53,5.208-37.759,13.021-54.685,23.437
		l-74.214-60.543l-68.354,68.354l60.543,74.214c-10.416,16.927-18.229,35.154-23.437,54.685L0,507.613v97.65l93.744,9.765
		c5.208,19.53,13.021,37.758,23.437,54.685l-60.543,72.261l68.354,70.308l74.214-60.543c16.926,10.416,35.154,18.229,54.685,23.437
		l7.812,93.744h97.65l9.765-93.744c19.53-5.208,37.758-13.021,54.685-23.437l74.214,60.543l68.354-70.308l-60.543-72.261
		C516.243,652.785,524.055,634.558,529.263,615.028z M374.002,619.91c-17.578,17.578-38.735,26.366-63.474,26.366
		s-45.896-8.788-63.473-26.366c-17.578-17.577-26.366-38.734-26.366-63.473s8.788-45.896,26.366-63.473
		c17.577-17.578,38.734-26.366,63.473-26.366s45.896,8.788,63.474,26.366c17.577,17.577,26.365,38.734,26.365,63.473
		S391.579,602.333,374.002,619.91z"/>
	<path fill="#FFFFFF" fill-opacity="0.7" d="M837.838,706.819l35.153-35.154l-31.248-41.013l-41.013,27.342
		c-7.812-6.51-16.926-11.718-27.342-15.624v-48.824l-48.825-5.859l-9.765,48.825c-10.416,1.302-20.182,4.557-29.295,9.765
		l-35.154-37.106l-37.107,33.2l25.39,42.967c-5.208,7.812-9.766,16.926-13.671,27.342h-48.825l-5.859,50.777l48.825,11.719
		c1.302,10.416,3.906,20.181,7.812,29.295l-35.153,35.153l31.248,41.014l41.013-27.342c9.114,6.51,18.228,11.066,27.342,13.671
		v50.777l48.825,5.859l9.765-48.825c10.416-1.302,20.182-4.557,29.295-9.765l35.154,37.106l39.06-33.2l-27.342-42.967
		c6.511-7.812,11.067-16.926,13.671-27.342h48.825l5.859-50.777l-46.872-11.719C844.998,725.698,841.743,715.933,837.838,706.819z
		 M779.248,760.526c-1.301,13.671-7.16,24.738-17.576,33.201c-10.417,8.463-21.81,11.719-34.179,9.765
		c-12.368-1.953-22.784-7.812-31.248-17.577c-8.463-9.765-11.393-21.808-8.789-36.13l0.001-0.001
		c0-11.718,4.558-21.808,13.672-30.271c9.113-8.463,19.529-12.694,31.247-12.694h5.859c11.718,2.604,21.809,8.788,30.271,18.553
		C776.969,735.137,780.55,746.855,779.248,760.526z"/>
	<path fill="#FFFFFF" fill-opacity="0.7" d="M992.125,365.044l7.812-70.309l-68.354-13.671
		c-1.303-15.624-5.209-29.945-11.719-42.966l48.825-48.825l-44.919-54.684l-56.637,39.06c-11.719-9.113-24.738-16.274-39.061-21.482
		l1.953-68.355L757.764,76l-13.671,66.401c-14.322,2.604-27.993,7.161-41.014,13.671l-48.824-48.824l-54.685,44.919l37.107,56.637
		c-7.813,11.718-14.322,24.738-19.53,39.06l-70.308-1.952l-7.813,72.261l68.355,13.671c2.604,14.322,6.51,27.993,11.718,41.013
		l-48.825,48.825l44.919,54.684l58.59-37.106c11.719,7.812,24.087,14.321,37.107,19.529v70.309l70.308,5.858l13.671-66.401
		c14.322-2.604,28.645-6.511,42.967-11.719l46.872,48.825l56.637-44.919l-39.061-58.59c9.114-11.718,16.275-24.087,21.483-37.106
		H992.125z M834.908,312.313c-1.952,18.228-9.765,33.2-23.436,44.919c-13.672,11.719-29.621,16.602-47.85,14.648
		c-18.228-1.953-33.2-10.091-44.919-24.413c-11.718-14.322-16.274-30.597-13.671-48.825v-0.001
		c1.302-16.925,8.137-30.922,20.506-41.989c12.37-11.067,27.018-16.601,43.943-16.601h7.813
		c18.229,2.604,32.876,10.741,43.942,24.413S836.861,294.085,834.908,312.313z"/>
</g>
</svg>
