<?xml version="1.0" encoding="utf-8"?>
<!-- Generator: Adobe Illustrator 16.0.0, SVG Export Plug-In . SVG Version: 6.00 Build 0)  -->
<!DOCTYPE svg PUBLIC "-//W3C//DTD SVG 1.1//EN" "http://www.w3.org/Graphics/SVG/1.1/DTD/svg11.dtd">
<svg version="1.1" id="svg2943" xmlns:svg="http://www.w3.org/2000/svg"
	 xmlns="http://www.w3.org/2000/svg" xmlns:xlink="http://www.w3.org/1999/xlink" x="0px" y="0px" width="300px" height="159px"
	 viewBox="0 0 300 159" enable-background="new 0 0 300 159" xml:space="preserve">
<g>
	<path fill="none" d="M164.906,43.725h-17.888l3.976-20.869h-18.882l-1.59,8.049l0,0l-14.267,72.444h18.838l8.944-44.718h14.906
		c6.956,0,6.956,2.981,5.962,7.95l-6.956,36.769h19.875l6.956-40.743C186.768,52.669,180.806,44.719,164.906,43.725z"/>
	<path fill="none" d="M231.487,43.725h-36.769l-15.899,80.494H197.7l3.975-20.869h17.888c16.894,0.994,35.775-12.918,35.775-36.769
		C255.338,52.669,247.387,44.719,231.487,43.725z"/>
	<polygon fill="#272F44" points="130.522,30.906 116.213,103.35 116.256,103.35 130.522,30.906 	"/>
	<path fill="#42B5E6" fill-opacity="0.8" d="M122.175,66.581c0-13.912-7.949-21.862-23.85-22.856H61.556l-15.9,80.494h18.882
		l3.975-20.869H86.4C103.294,104.344,122.175,90.432,122.175,66.581z M84.413,88.443H72.487l4.969-29.812h12.919
		c6.956,0,11.925,2.981,11.925,8.944C101.306,84.469,93.356,87.45,84.413,88.443z"/>
	<g>
		<path fill="none" d="M223.538,58.631h-12.919l-4.969,29.812h11.925c8.943-0.993,16.894-3.975,17.888-20.868
			C235.463,61.612,230.494,58.631,223.538,58.631z"/>
		<path fill="none" d="M231.487,43.725h-36.769l-15.899,80.494H197.7l3.975-20.869h17.888c16.894,0.994,35.775-12.918,35.775-36.769
			C255.338,52.669,247.387,44.719,231.487,43.725z M217.575,88.443H205.65l4.969-29.812h12.919c6.956,0,11.925,2.981,11.925,8.944
			C234.469,84.469,226.518,87.45,217.575,88.443z"/>
		<path fill="none" d="M164.906,43.725h-17.888l3.976-20.869h-18.882l-1.59,8.049l-14.31,72.444h0.043h18.838l8.944-44.718h14.906
			c6.956,0,6.956,2.981,5.962,7.95l-6.956,36.769h19.875l6.956-40.743C186.768,52.669,180.806,44.719,164.906,43.725z"/>
		<path fill="none" d="M98.325,43.725H61.556l-15.9,80.494h18.882l3.975-20.869H86.4c16.894,0.994,35.774-12.918,35.774-36.769
			C122.175,52.669,114.225,44.719,98.325,43.725z M84.413,88.443H72.487l4.969-29.812h12.919c6.956,0,11.925,2.981,11.925,8.944
			C101.306,84.469,93.356,87.45,84.413,88.443z"/>
		<g>
			<path fill="#FFFFFF" fill-opacity="0.7" d="M223.538,58.631h-12.919l-4.969,29.812h11.925
				c8.943-0.993,16.894-3.975,17.888-20.868C235.463,61.612,230.494,58.631,223.538,58.631z"/>
			<path fill="#FFFFFF" fill-opacity="0.7" d="M90.375,58.631H77.456l-4.969,29.812h11.926c8.943-0.993,16.894-3.975,17.887-20.868
				C102.3,61.612,97.331,58.631,90.375,58.631z"/>
			<path fill="#FFFFFF" fill-opacity="0.7" d="M150,3.975C69.871,3.975,4.913,37.789,4.913,79.5
				c0,41.711,64.958,75.525,145.087,75.525c80.13,0,145.088-33.814,145.088-75.525C295.088,37.789,230.13,3.975,150,3.975z
				 M86.4,103.35H68.512l-3.975,20.869H45.656l15.9-80.494h36.769c15.9,0.994,23.85,8.944,23.85,22.856
				C122.175,90.432,103.294,104.344,86.4,103.35z M157.95,103.35l6.956-36.769c0.994-4.969,0.994-7.95-5.962-7.95h-14.906
				l-8.944,44.718h-18.838h-0.043l14.31-72.444l1.59-8.049h18.882l-3.976,20.869h17.888c15.9,0.994,21.862,8.944,19.875,18.881
				l-6.956,40.743H157.95z M219.562,103.35h-17.888l-3.975,20.869h-18.881l15.899-80.494h36.769
				c15.9,0.994,23.851,8.944,23.851,22.856C255.338,90.432,236.456,104.344,219.562,103.35z"/>
		</g>
	</g>
</g>
</svg>
