<?xml version="1.0" encoding="utf-8"?>
<!-- Generator: Adobe Illustrator 16.0.0, SVG Export Plug-In . SVG Version: 6.00 Build 0)  -->
<!DOCTYPE svg PUBLIC "-//W3C//DTD SVG 1.1//EN" "http://www.w3.org/Graphics/SVG/1.1/DTD/svg11.dtd">
<svg version="1.1" id="Layer_1" xmlns="http://www.w3.org/2000/svg" xmlns:xlink="http://www.w3.org/1999/xlink" x="0px" y="0px"
	 width="512px" height="512px" viewBox="0 0 512 512" enable-background="new 0 0 512 512" xml:space="preserve">
<g>
	<path fill="none" d="M255.706,18.138C122.974,20.749,18.487,128.95,17.562,255.705c2.587,132.845,111.4,237.244,238.144,238.145
		c132.856-2.574,237.231-111.399,238.156-238.145C491.362,122.88,382.288,19.075,255.706,18.138z M255.719,38.031
		c56.369,1.063,108.932,22.362,147.469,57.331c-17.875-1.331-28.575,6.525-36.274,19.906c-11.199,34.519,12.476,60.094,25.75,86.013
		c12.562,23.693,11.562,50.612,4.676,73.737l-32.777,111.758l-79-234.646c8.237-0.769,16.525-1.012,24-2.344
		c8.838-1.969,10.787-10.199,4.675-15.219c-1.949-1.55-4.1,0.207-6.425,0.207l-47.406,6.024h-35.994
		c-10.148,0-38.85-11.737-41.256,1.574c-1.256,5.119,2.588,7.889,7.031,8.693c7.818,1.013,16.787,1.538,23.981,2.288l34.523,92.138
		l-47.987,141.456l-79.581-234.73c8.426-0.744,16.95-1.025,24.581-2.382c6.244-0.794,8.97-3.919,8.2-9.368
		c-1.11-4.861-5.436-8.168-9.941-8.219c-24,3.25-47.319,4.433-70.22,3.494C117.214,73.599,186.818,38.643,255.719,38.031z
		 M71.987,373.026c-38.912-62.101-43.006-140.869-15.806-204.5l104.743,283.199C123.137,433.1,93.262,405.7,71.987,373.026z
		 M194.295,465.2l65.523-188.425l68.47,184.324C282.162,476.526,238.556,477.475,194.295,465.2z M364.562,444.699
		c2.338-6.2,6.037-16.75,11.101-31.575l60.875-176.719c5.851-17.182,9.926-36.275,12.274-57.344
		c0.787-8.619,0.813-17.308-0.575-25.156c24.926,53.776,32,107.038,17.25,160.02C448.3,370.074,413.176,416.6,364.562,444.699z"/>
	<path fill="#FFFFFF" fill-opacity="0.7" d="M143.964,132.249c4.506,0.051,8.831,3.357,9.941,8.219
		c0.77,5.449-1.956,8.574-8.2,9.368c-7.631,1.356-16.155,1.638-24.581,2.382l79.581,234.73l47.987-141.456l-34.523-92.138
		c-7.194-0.75-16.163-1.275-23.981-2.288c-4.443-0.805-8.287-3.574-7.031-8.693c2.406-13.312,31.107-1.574,41.256-1.574h35.994
		l47.406-6.024c2.325,0,4.476-1.757,6.425-0.207c6.112,5.02,4.163,13.25-4.675,15.219c-7.475,1.332-15.763,1.575-24,2.344
		l79,234.646l32.777-111.758c6.886-23.125,7.886-50.044-4.676-73.737c-13.274-25.919-36.949-51.494-25.75-86.013
		c7.699-13.381,18.399-21.237,36.274-19.906c-38.537-34.969-91.1-56.269-147.469-57.331
		c-68.901,0.612-138.506,35.568-181.976,97.713C96.644,136.682,119.964,135.499,143.964,132.249z"/>
	<path fill="#FFFFFF" fill-opacity="0.7" d="M71.987,373.026c21.275,32.675,51.15,60.074,88.938,78.699L56.181,168.526
		C28.981,232.156,33.075,310.925,71.987,373.026z"/>
	<path fill="#FFFFFF" fill-opacity="0.7" d="M255.706-0.001C119.35,1.013,2.781,112.856,0,255.705
		C1.013,392.05,112.757,509.249,255.706,511.999c136.557-1,253.481-113.324,256.295-256.294
		C511.013,119.182,398.589,2.856,255.706-0.001z M255.706,493.85c-126.743-0.9-235.557-105.3-238.144-238.145
		C18.487,128.95,122.974,20.749,255.706,18.138c126.582,0.938,235.656,104.742,238.156,237.567
		C492.937,382.45,388.562,491.276,255.706,493.85z"/>
	<path fill="#42B5E6" fill-opacity="0.8" d="M194.295,465.2c44.262,12.274,87.867,11.325,133.993-4.101l-68.47-184.324
		L194.295,465.2z"/>
	<path fill="#42B5E6" fill-opacity="0.8" d="M448.237,153.906c1.388,7.849,1.362,16.537,0.575,25.156
		c-2.349,21.068-6.424,40.162-12.274,57.344l-60.875,176.719c-5.063,14.825-8.763,25.375-11.101,31.575
		c48.613-28.1,83.737-74.625,100.925-130.774C480.237,260.944,473.163,207.682,448.237,153.906z"/>
</g>
</svg>
